<svg width="77" height="81" viewBox="0 0 77 81" fill="none" xmlns="http://www.w3.org/2000/svg">
<path d="M33.0785 1.3753C36.4333 -0.458434 40.5666 -0.458433 43.9215 1.3753L71.5785 16.4926C74.9333 18.3263 77 21.7152 77 25.3827V55.6173C77 59.2848 74.9333 62.6737 71.5785 64.5074L43.9215 79.6247C40.5666 81.4584 36.4333 81.4584 33.0785 79.6247L5.42146 64.5074C2.06665 62.6737 0 59.2848 0 55.6173V25.3827C0 21.7152 2.06665 18.3263 5.42146 16.4926L33.0785 1.3753Z" fill="#F11D36"/>
<path fill-rule="evenodd" clip-rule="evenodd" d="M36.248 42.0433C37.0015 40.9562 38.3961 40.4786 39.68 40.8434L39.6998 40.8492C40.9932 41.2363 41.8725 42.3789 41.8725 43.6747V47.719H43.2589C44.3665 47.719 45.4206 48.3035 45.9552 49.2745C46.479 50.2262 46.4224 51.3907 45.8091 52.2896L38.5336 62.9191C37.9512 63.7594 36.9861 64.2353 35.9738 64.2353C35.7236 64.2353 35.4218 64.2114 35.0958 64.1173L35.0817 64.1133C33.7883 63.7262 32.9091 62.5836 32.9091 61.2877V57.2434H31.5226C30.4151 57.2434 29.3609 56.659 28.8264 55.6879C28.3025 54.7362 28.3592 53.5717 28.9725 52.6728L36.248 42.0433ZM38.658 43.5861L31.3929 54.2005C31.3928 54.2007 31.393 54.2004 31.3929 54.2005C31.379 54.221 31.3667 54.2522 31.3649 54.2904C31.363 54.3288 31.372 54.3616 31.385 54.3851C31.3939 54.4013 31.4103 54.4201 31.4377 54.4357C31.4657 54.4517 31.4962 54.459 31.5226 54.459H34.3566C35.156 54.459 35.8041 55.0824 35.8041 55.8512V61.2877C35.8041 61.3507 35.8438 61.4182 35.9256 61.4491C35.9336 61.4499 35.9489 61.4509 35.9738 61.4509C36.0084 61.4509 36.0378 61.443 36.0613 61.431C36.0836 61.4197 36.1049 61.4027 36.1235 61.3764L43.3887 50.7619C43.3886 50.762 43.3888 50.7618 43.3887 50.7619C43.4026 50.7415 43.4148 50.7104 43.4167 50.6721C43.4186 50.6337 43.4095 50.6008 43.3966 50.5773C43.3877 50.5611 43.3712 50.5424 43.3439 50.5268C43.3158 50.5107 43.2854 50.5034 43.2589 50.5034H40.425C39.6255 50.5034 38.9774 49.8801 38.9774 49.1112V43.6747C38.9774 43.6104 38.936 43.5413 38.8504 43.5113C38.7816 43.4958 38.7036 43.5219 38.658 43.5861Z" fill="#3C0007"/>
<path fill-rule="evenodd" clip-rule="evenodd" d="M17.4287 22.6549C18.2281 22.6549 18.8762 23.2782 18.8762 24.0471V31.9425C18.8762 32.7114 18.2281 33.3347 17.4287 33.3347C16.6293 33.3347 15.9812 32.7114 15.9812 31.9425V24.0471C15.9812 23.2782 16.6293 22.6549 17.4287 22.6549Z" fill="#3C0007"/>
<path fill-rule="evenodd" clip-rule="evenodd" d="M6.44849 26.4616C6.44849 25.6927 7.09656 25.0694 7.896 25.0694H26.979C27.7784 25.0694 28.4265 25.6927 28.4265 26.4616C28.4265 27.2305 27.7784 27.8538 26.979 27.8538H7.896C7.09656 27.8538 6.44849 27.2305 6.44849 26.4616Z" fill="#3C0007"/>
<path fill-rule="evenodd" clip-rule="evenodd" d="M59.7078 22.6549C60.5072 22.6549 61.1553 23.2782 61.1553 24.0471V31.9425C61.1553 32.7114 60.5072 33.3347 59.7078 33.3347C58.9083 33.3347 58.2603 32.7114 58.2603 31.9425V24.0471C58.2603 23.2782 58.9083 22.6549 59.7078 22.6549Z" fill="#3C0007"/>
<path fill-rule="evenodd" clip-rule="evenodd" d="M48.725 26.4615C48.725 25.6926 49.373 25.0693 50.1725 25.0693H69.2555C70.0549 25.0693 70.703 25.6926 70.703 26.4615C70.703 27.2304 70.0549 27.8537 69.2555 27.8537H50.1725C49.373 27.8537 48.725 27.2304 48.725 26.4615Z" fill="#3C0007"/>
<path fill-rule="evenodd" clip-rule="evenodd" d="M33.3314 33.0543C31.9754 33.7593 31.3677 34.5877 31.258 35.2557C31.147 35.9324 30.5405 36.4307 29.8282 36.4307H20.6333C19.8339 36.4307 19.1858 35.8074 19.1858 35.0386V33.3348H15.6582V41.0972C15.6582 42.1503 16.5349 42.9936 17.6299 42.9936C18.7207 42.9936 19.6016 42.1396 19.6016 41.0972C19.6016 40.3283 20.2497 39.705 21.0492 39.705H31.5841C32.3835 39.705 33.0316 40.3283 33.0316 41.0972C33.0316 41.8661 32.3835 42.4894 31.5841 42.4894H22.2771C21.6615 44.3884 19.8202 45.7779 17.6299 45.7779C14.936 45.7779 12.7632 43.6881 12.7632 41.0972V31.9426C12.7632 31.1737 13.4113 30.5504 14.2107 30.5504H20.6333C21.4327 30.5504 22.0808 31.1737 22.0808 31.9426V33.6464H28.7652C29.3745 32.3473 30.5762 31.3217 31.9545 30.605C33.7594 29.6665 36.0857 29.1283 38.5766 29.1283C41.0674 29.1283 43.3937 29.6665 45.1986 30.605C46.5768 31.3217 47.7786 32.3473 48.3879 33.6464H55.0723V31.9426C55.0723 31.1737 55.7203 30.5504 56.5198 30.5504H62.9424C63.7418 30.5504 64.3899 31.1737 64.3899 31.9426V41.0972C64.3899 43.6651 62.2255 45.7779 59.5386 45.7779C57.3645 45.7779 55.5088 44.3994 54.8907 42.4894H45.5844C44.785 42.4894 44.1369 41.8661 44.1369 41.0972C44.1369 40.3283 44.785 39.705 45.5844 39.705H56.1193C56.9188 39.705 57.5668 40.3283 57.5668 41.0972C57.5668 42.1463 58.4547 42.9936 59.5386 42.9936C60.6097 42.9936 61.4949 42.1437 61.4949 41.0972V33.3348H57.9673V35.0386C57.9673 35.8074 57.3192 36.4307 56.5198 36.4307H47.3248C46.6126 36.4307 46.0061 35.9324 45.895 35.2557C45.7854 34.5877 45.1776 33.7593 43.8217 33.0543C42.5 32.367 40.6601 31.9127 38.5766 31.9127C36.493 31.9127 34.6531 32.367 33.3314 33.0543Z" fill="#3C0007"/>
</svg>
