<svg width="41" height="35" viewBox="0 0 41 35" fill="none" xmlns="http://www.w3.org/2000/svg">
<path d="M17.4344 1.00594C19.1895 0.235974 21.3519 0.235975 23.107 1.00594L37.5762 7.35357C39.3313 8.12354 40.4125 9.54651 40.4125 11.0864V23.7817C40.4125 25.3216 39.3313 26.7446 37.5762 27.5146L23.107 33.8622C21.3519 34.6322 19.1895 34.6322 17.4344 33.8622L2.96522 27.5146C1.2101 26.7446 0.128906 25.3216 0.128906 23.7817V11.0864C0.128906 9.54651 1.2101 8.12354 2.96522 7.35357L17.4344 1.00594Z" fill="#00FF09"/>
<path d="M32.5923 8.7686C33.0223 8.43671 33.0223 7.78791 32.5923 7.45601V7.45601C32.2939 7.22563 31.8776 7.22563 31.5791 7.45601L19.3312 16.9106C19.1565 17.0503 19.0598 17.2373 19.0619 17.4315C19.0641 17.6257 19.165 17.8115 19.3429 17.9488C19.5208 18.0862 19.7615 18.1641 20.0131 18.1657C20.2646 18.1674 20.507 18.0928 20.688 17.9579L22.273 16.7346C23.645 15.6757 25.8625 15.921 25.7515 17.6506V17.6506C25.6878 18.6447 25.1931 19.5935 24.347 20.3447C23.5009 21.0959 22.3525 21.6058 21.0859 21.7927C19.8193 21.9796 18.5082 21.8326 17.3628 21.3753C16.2175 20.9179 15.3044 20.1769 14.7701 19.2709C14.2358 18.365 14.1113 17.3468 14.4166 16.3797C14.7219 15.4126 15.4392 14.5527 16.4535 13.938C17.2722 13.4418 18.2462 13.1287 19.2696 13.0267C19.6769 12.9862 20.0096 12.6583 20.0096 12.249V12.249C20.0096 11.8401 19.6779 11.5057 19.2701 11.5356C17.7975 11.6439 16.3909 12.0785 15.2236 12.793C13.8621 13.6263 12.9065 14.7911 12.5126 16.0974C12.1188 17.4037 12.3099 18.7745 13.0548 19.9862C13.7998 21.1979 15.0545 22.1791 16.6145 22.7696C18.1746 23.3602 19.9477 23.5254 21.645 23.2382C23.3422 22.951 24.8633 22.2284 25.9602 21.1882C27.0571 20.1481 27.6651 18.8517 27.6851 17.5106C27.6958 16.7907 27.5368 16.0808 27.2224 15.4137C26.7729 14.46 26.8109 13.2315 27.6456 12.5872V12.5872C28.3146 12.0708 29.2744 12.0963 29.8045 12.7545C30.9298 14.1513 31.5316 15.7719 31.5236 17.4342C31.5236 19.1921 30.8483 20.9105 29.5831 22.3721C28.3179 23.8337 26.5197 24.9729 24.4158 25.6456C22.3119 26.3183 19.9968 26.4943 17.7634 26.1514C15.5299 25.8084 13.4783 24.9619 11.868 23.7189C10.2578 22.4759 9.16116 20.8923 8.7169 19.1682C8.27263 17.4441 8.50064 15.657 9.37211 14.0329C10.2436 12.4089 11.7193 11.0208 13.6128 10.0442C15.3005 9.17369 17.2524 8.66496 19.2692 8.56466C19.6778 8.54434 20.0096 8.21466 20.0096 7.8056V7.8056C20.0096 7.39655 19.6779 7.06329 19.2692 7.0807C16.8725 7.18282 14.55 7.7792 12.5467 8.81248C10.3376 9.95187 8.6159 11.5713 7.59919 13.4661C6.58248 15.3608 6.31646 17.4457 6.83478 19.4572C7.35309 21.4686 8.63245 23.3162 10.5111 24.7664C12.3897 26.2166 14.7832 27.2041 17.389 27.6042C19.9947 28.0043 22.6956 27.799 25.1502 27.0142C27.6047 26.2293 29.7027 24.9003 31.1787 23.1951C32.6547 21.4899 33.4426 19.4851 33.4426 17.4342C33.4506 15.5439 32.7826 13.7008 31.5334 12.1014C30.8936 11.2821 30.9221 10.0579 31.745 9.42269L32.5923 8.7686Z" fill="#024A15" stroke="#024A15"/>
</svg>
